<svg xmlns="http://www.w3.org/2000/svg" xmlns:xlink="http://www.w3.org/1999/xlink" width="48" height="48" viewBox="0 0 48 48">
  <defs>
    <linearGradient id="linear-gradient" x1="0.5" y1="1" x2="0.5" gradientUnits="objectBoundingBox">
      <stop offset="0" stop-color="#fcdc6b"/>
      <stop offset="1" stop-color="#df4158"/>
    </linearGradient>
  </defs>
  <g id="Group_6124" data-name="Group 6124" transform="translate(-0.199 -0.316)">
    <circle id="Ellipse_25" data-name="Ellipse 25" cx="24" cy="24" r="24" transform="translate(0.199 0.316)" fill="url(#linear-gradient)"/>
    <path id="Path_4735" data-name="Path 4735" d="M20013.359,2993c4.852,0,5.34,1.064,5.34,1.913,0,.866-2.4,1.209-5.34,1.209-2.959,0-5.359-.343-5.359-1.209C20008,2994.064,20008.488,2993,20013.359,2993Z" transform="translate(-19986.334 -2952.98)" fill="#201e1e" fill-rule="evenodd"/>
    <path id="Path_4736" data-name="Path 4736" d="M19326,2617.209c0,1.317,1.064,1.533,2.363,1.912a3.976,3.976,0,0,1,.434.126,4.223,4.223,0,0,0,3.861,2.417,4.347,4.347,0,0,0,2.885-1.082c.506.072,1.012.108,1.535.162.758.054,1.172.108,1.641-.307a1.36,1.36,0,0,0-.865-2.364l-3.717-.433a36.772,36.772,0,0,1-5.9-1.407,3.484,3.484,0,0,0-.812-.235h-.289a1.2,1.2,0,0,0-.723.361A1.469,1.469,0,0,0,19326,2617.209Zm4.367,2.436a3.057,3.057,0,0,0,.4.09A3.057,3.057,0,0,1,19330.367,2619.645Z" transform="translate(-19316.639 -2582.782)" fill="#201e1e" fill-rule="evenodd"/>
    <path id="Path_4737" data-name="Path 4737" d="M20582.158,2635.137c0,1.245-1.01,1.443-2.256,1.8-.125.036-.252.072-.4.108a3.974,3.974,0,0,1-3.645,2.291,4.13,4.13,0,0,1-2.705-1.01c-.488.054-.975.09-1.463.144-.7.054-1.1.108-1.533-.307a1.27,1.27,0,0,1,.795-2.219l3.518-.4a36.1,36.1,0,0,0,5.557-1.335,2.93,2.93,0,0,1,.775-.217h.271a1.2,1.2,0,0,1,.666.325A1.457,1.457,0,0,1,20582.158,2635.137Zm-4.131,2.291a3,3,0,0,1-.379.09A3,3,0,0,0,20578.027,2637.428Z" transform="translate(-20537.939 -2600.458)" fill="#201e1e" fill-rule="evenodd"/>
  </g>
</svg>
