<svg xmlns="http://www.w3.org/2000/svg" xmlns:xlink="http://www.w3.org/1999/xlink" width="49" height="48" viewBox="0 0 49 48">
  <defs>
    <clipPath id="clip-path">
      <path id="Path_4731" data-name="Path 4731" d="M8715.786,1773.46c1.876-.379,3.771-.776,6.188-1.083,2.436-.289,5.431-.487,8.1-.577a71.436,71.436,0,0,1,7.38.036c2.346.144,4.709.415,7.036.758,2.327.361,4.654.794,6.965,1.227a22.894,22.894,0,0,1-.47,5.485,18.514,18.514,0,0,1-2.868,6.459,22.307,22.307,0,0,1-5.034,5,13.7,13.7,0,0,1-4.421,2.129,19.208,19.208,0,0,1-4.853.776,17.683,17.683,0,0,1-4.926-.722,15.917,15.917,0,0,1-4.871-2.219,20.083,20.083,0,0,1-4.979-4.727,17.127,17.127,0,0,1-2.851-6.315A25.189,25.189,0,0,1,8715.786,1773.46Z" transform="translate(-8715.764 -1771.723)" clip-rule="evenodd"/>
    </clipPath>
  </defs>
  <g id="Group_6118" data-name="Group 6118" transform="translate(0.383 -0.316)">
    <ellipse id="Ellipse_19" data-name="Ellipse 19" cx="24.5" cy="24" rx="24.5" ry="24" transform="translate(-0.383 0.316)" fill="#fcdc6b"/>
    <g id="Group_6093" data-name="Group 6093" transform="translate(6.798 8.807)">
      <g id="Group_6092" data-name="Group 6092">
        <path id="Path_4728" data-name="Path 4728" d="M8797.732,1264.281c0,1.335,1.533,1.5,2.616,1.912l.252.108c-.56.144-3.572.758-3.933.974a1.341,1.341,0,0,0-.668,1.028v.343a1.313,1.313,0,0,0,1.426,1.137,7.329,7.329,0,0,0,1.335-.271l3.86-.884a20.722,20.722,0,0,0,3.753-.974,1.383,1.383,0,0,0,.162-2.075,3.044,3.044,0,0,0-.974-.469c-1.191-.4-5.7-2.111-6.55-2.111A1.349,1.349,0,0,0,8797.732,1264.281Z" transform="translate(-8796 -1263)" fill="#201e1e" fill-rule="evenodd"/>
        <path id="Path_4729" data-name="Path 4729" d="M10083,1295.536c0,1.137.9,1.353,1.714,1.516.866.18,1.732.415,2.58.6l3.861.884a5.185,5.185,0,0,0,1.642.253,1.32,1.32,0,0,0,1.118-1.137c0-1.425-.739-1.425-1.894-1.714-.9-.234-1.8-.415-2.707-.613l2.2-.83c.036-.018.126-.09.181-.126a1.332,1.332,0,0,0-.938-2.364,14.323,14.323,0,0,0-2.129.65c-1.19.469-3.121,1.028-4.2,1.461C10083.722,1294.381,10083,1294.58,10083,1295.536Z" transform="translate(-10059.78 -1291.477)" fill="#201e1e" fill-rule="evenodd"/>
      </g>
    </g>
    <path id="Path_4730" data-name="Path 4730" d="M8715.786,1773.46c1.876-.379,3.771-.776,6.188-1.083,2.436-.289,5.431-.487,8.1-.577a71.436,71.436,0,0,1,7.38.036c2.346.144,4.709.415,7.036.758,2.327.361,4.654.794,6.965,1.227a22.894,22.894,0,0,1-.47,5.485,18.514,18.514,0,0,1-2.868,6.459,22.307,22.307,0,0,1-5.034,5,13.7,13.7,0,0,1-4.421,2.129,19.208,19.208,0,0,1-4.853.776,17.683,17.683,0,0,1-4.926-.722,15.917,15.917,0,0,1-4.871-2.219,20.083,20.083,0,0,1-4.979-4.727,17.127,17.127,0,0,1-2.851-6.315A25.189,25.189,0,0,1,8715.786,1773.46Z" transform="translate(-8710.413 -1753.738)" fill="#201e1e" fill-rule="evenodd"/>
    <g id="Group_6095" data-name="Group 6095" transform="translate(5.351 17.985)" clip-path="url(#clip-path)">
      <g id="Group_6094" data-name="Group 6094" transform="translate(2.879 11.193)">
        <ellipse id="Ellipse_20" data-name="Ellipse 20" cx="15" cy="10.5" rx="15" ry="10.5" transform="translate(0.387 0.137)" fill="#f50953"/>
      </g>
    </g>
    <path id="Path_4732" data-name="Path 4732" d="M8715.786,1773.46c1.876-.379,3.771-.776,6.188-1.083,2.436-.289,5.431-.487,8.1-.577a71.436,71.436,0,0,1,7.38.036c2.346.144,4.709.415,7.036.758,2.327.361,4.654.794,6.965,1.227a22.894,22.894,0,0,1-.47,5.485,18.514,18.514,0,0,1-2.868,6.459,22.307,22.307,0,0,1-5.034,5,13.7,13.7,0,0,1-4.421,2.129,19.208,19.208,0,0,1-4.853.776,17.683,17.683,0,0,1-4.926-.722,15.917,15.917,0,0,1-4.871-2.219,20.083,20.083,0,0,1-4.979-4.727,17.127,17.127,0,0,1-2.851-6.315A25.189,25.189,0,0,1,8715.786,1773.46Z" transform="translate(-8710.413 -1753.738)" fill="none" fill-rule="evenodd"/>
  </g>
</svg>
