<svg xmlns="http://www.w3.org/2000/svg" width="49" height="48" viewBox="0 0 49 48">
  <g id="Group_6113" data-name="Group 6113" transform="translate(-0.058 -0.316)">
    <ellipse id="Ellipse_17" data-name="Ellipse 17" cx="24.5" cy="24" rx="24.5" ry="24" transform="translate(0.058 0.316)" fill="#6a99d0"/>
    <path id="Path_4726" data-name="Path 4726" d="M2079.632,1425.842h4.294a.608.608,0,0,1,.613.613v12.359a.608.608,0,0,1-.613.614h-4.294a.624.624,0,0,1-.632-.614v-12.359A.624.624,0,0,1,2079.632,1425.842Zm7.433,11.854h13.116a1.752,1.752,0,0,0,1.75-1.75h0a1.787,1.787,0,0,0-1.119-1.624h.325a1.922,1.922,0,0,0,1.678-1.931h0a1.69,1.69,0,0,0-1.678-1.7h-.325v-.144h.938a1.7,1.7,0,0,0,1.7-1.678h0a1.706,1.706,0,0,0-1.7-1.7h-.938v-.144h.938a1.7,1.7,0,0,0,1.7-1.678h0a1.706,1.706,0,0,0-1.7-1.7h-7.343c-.054-.018-.054-.072,0-.18q.135-.271.6-1.083a7.547,7.547,0,0,0,.884-2.147,7.674,7.674,0,0,0,.018-2.869,3.562,3.562,0,0,0-.83-1.876,1.923,1.923,0,0,0-1.317-.6,1.847,1.847,0,0,0-1.3.415,2.377,2.377,0,0,0-.614,1.443c-.072.65-.018,1.443-.036,1.931a1.039,1.039,0,0,1-.433.92c-.325.234-.848.541-1.335.956a10.544,10.544,0,0,0-1.407,1.606c-.758.974-2.652,3.428-2.652,4.474v9.959A1.086,1.086,0,0,0,2087.065,1437.7Z" transform="translate(-2066.947 -1403.359)" fill="#fefefe" fill-rule="evenodd"/>
  </g>
</svg>
